<?xml version="1.0" encoding="UTF-8"?>
<svg width="132px" height="30px" viewBox="0 0 132 30" version="1.1" xmlns="http://www.w3.org/2000/svg" xmlns:xlink="http://www.w3.org/1999/xlink">
    <!-- Generator: Sketch 54.1 (76490) - https://sketchapp.com -->
    <title>编组</title>
    <desc>Created with Sketch.</desc>
    <defs>
        <polygon id="path-1" points="0 29.4827586 131.708544 29.4827586 131.708544 0.158793103 0 0.158793103"></polygon>
    </defs>
    <g id="页面1" stroke="none" stroke-width="1" fill="none" fill-rule="evenodd">
        <g id="中心服务" transform="translate(-1740.000000, -48.000000)">
            <g id="编组" transform="translate(1740.000000, 48.000000)">
                <path d="M118.159906,0.517344828 L127.297474,0.517344828 L131.708914,4.83889655 L131.708914,29.8413103 L113.748466,29.8413103 L113.748466,4.83889655 L118.159906,0.517344828 Z M130.161293,13.0021034 L123.790973,13.0021034 L123.790973,7.69313793 L129.791165,7.69313793 L129.791165,6.35296552 L123.790973,6.35296552 L123.790973,2.2202069 L121.322045,2.2202069 L121.322045,13.0021034 L115.295981,13.0021034 L115.295981,14.4017586 L130.161293,14.4017586 L130.161293,13.0021034 Z M121.331179,17.7158276 L116.863771,17.7158276 L116.863771,18.8573793 L128.593291,18.8573793 L128.593291,17.7158276 L124.139611,17.7158276 L124.139611,17.1603103 L129.389515,17.1603103 L129.389515,16.0187586 L124.139611,16.0187586 L124.139611,15.3137586 L121.331179,15.3137586 L121.331179,16.0187586 L116.067547,16.0187586 L116.067547,17.1603103 L121.331179,17.1603103 L121.331179,17.7158276 Z M125.764848,26.7822414 L125.764848,25.3887931 L126.951792,25.3887931 L126.951792,26.7822414 L125.764848,26.7822414 Z M123.740496,24.4360345 L123.739968,24.4360345 L123.739968,27.735 L123.740496,27.735 L128.984064,27.735 L128.984592,27.735 L128.984592,24.4360345 L128.984064,24.4360345 L123.740496,24.4360345 Z M119.286288,20.9213793 L119.286288,20.3658621 L126.137616,20.3658621 L126.137616,20.9213793 L119.286288,20.9213793 Z M124.147584,22.4301724 L121.27632,22.4301724 L121.047168,21.9051724 L124.43112,21.9051724 L124.147584,22.4301724 Z M126.354624,22.4301724 L126.637632,21.9051724 L128.559552,21.9051724 L128.559552,20.3658621 L128.573808,20.3658621 L128.573808,19.4131034 L116.88336,19.4131034 L116.88336,19.6241379 L116.88336,21.9051724 L118.952592,21.9051724 L119.181744,22.4301724 L115.271376,22.4301724 L115.271376,23.5712069 L130.185792,23.5712069 L130.185792,22.4301724 L126.354624,22.4301724 Z M120.346618,24.0717414 L118.28425,23.7996724 L118.190266,24.4234655 L116.074042,24.4234655 L116.074042,24.4343276 L116.074042,25.1786379 L116.074042,25.3762241 L117.865018,25.3762241 C117.741994,25.5841552 117.520234,25.8836379 117.112618,26.1717414 C116.464762,26.6279483 115.914058,26.6558793 115.455226,26.8053621 L116.698138,28.2262241 C118.018666,27.8455345 118.536634,27.4141552 119.03665,27.0288103 C119.303818,26.822431 119.507098,26.5891552 119.662858,26.3481207 C119.790106,26.1520862 119.97385,25.7031207 120.091594,25.3762241 L120.934282,25.3762241 C120.97441,25.7051897 121.02457,26.3269138 120.569962,26.5110517 C120.233098,26.6481207 119.803306,26.7091552 119.803306,26.7091552 L120.401002,28.1832931 C120.401002,28.1832931 120.661306,28.1434655 121.29385,27.9469138 C122.090602,27.6996724 122.570026,27.4203621 122.74321,27.1172586 C122.895802,26.8493276 122.93329,26.1107069 122.939626,25.3762241 L122.950714,25.3762241 L122.950714,24.4234655 L120.309658,24.4234655 L120.346618,24.0717414 Z" id="形状结合" fill="#FFFFFF"></path>
                <g transform="translate(0.000000, 0.358448)">
                    <mask id="mask-2" fill="white">
                        <use xlink:href="#path-1"></use>
                    </mask>
                    <g id="Clip-8"></g>
                    <polygon id="Fill-9" fill="#FFFFFF" mask="url(#mask-2)" points="17.9602368 9.11058621 17.9602368 4.48024138 13.5493248 0.158689655 4.4112288 0.158689655 -0.0002112 4.48024138 -0.0002112 13.4316207 4.4112288 17.7531724 10.7129088 17.7531724 11.9737728 18.9878276 11.9737728 22.3835172 10.7129088 23.6181724 7.2471168 23.6181724 5.9867808 22.3835172 5.9867808 20.5312759 -0.0002112 20.5312759 -0.0002112 25.1611034 4.4112288 29.4826552 13.5493248 29.4826552 17.9602368 25.1611034 17.9602368 16.2102414 13.5493248 11.8886897 7.2471168 11.8886897 5.9867808 10.6535172 5.9867808 7.25834483 7.2471168 6.02368966 10.7129088 6.02368966 11.9737728 7.25834483 11.9737728 9.11058621"></polygon>
                    <path d="M34.4239104,13.1232414 L28.4374464,13.1232414 L28.4374464,7.25824138 L29.6972544,6.02358621 L33.1635744,6.02358621 L34.4239104,7.25824138 L34.4239104,13.1232414 Z M40.0956864,4.17134483 L35.9994624,0.159103448 L26.8618944,0.159103448 L22.4504544,4.48065517 L22.4504544,29.4825517 L28.4374464,29.4825517 L28.4374464,18.9877241 L34.4239104,18.9877241 L34.4239104,29.4825517 L40.4103744,29.4825517 L40.4103744,4.48065517 L40.0956864,4.17134483 Z" id="Fill-10" fill="#FFFFFF" mask="url(#mask-2)"></path>
                    <polygon id="Fill-11" fill="#FFFFFF" mask="url(#mask-2)" points="56.8744704 0.158844828 56.8744704 11.8883276 50.8874784 0.158844828 44.9010144 0.158844828 44.9010144 29.4828103 50.8874784 29.4828103 50.8874784 14.666431 56.8744704 26.3959138 56.8744704 29.4828103 62.8609344 29.4828103 62.8609344 0.158844828"></polygon>
                    <polygon id="Fill-12" fill="#FFFFFF" mask="url(#mask-2)" points="85.3114416 9.11058621 85.3114416 4.48024138 80.9005296 0.158689655 71.7624336 0.158689655 67.3509936 4.48024138 67.3509936 25.1611034 71.7624336 29.4826552 80.9005296 29.4826552 85.3114416 25.1611034 85.3114416 11.8886897 76.4890896 11.8886897 76.4890896 17.7531724 79.3249776 17.7531724 79.3249776 22.3835172 78.0641136 23.6181724 74.5977936 23.6181724 73.3379856 22.3835172 73.3379856 7.25834483 74.5977936 6.02368966 78.0641136 6.02368966 79.3249776 7.25834483 79.3249776 9.11058621"></polygon>
                    <path d="M101.775062,13.1232414 L95.7880704,13.1232414 L95.7880704,7.25824138 L97.0484064,6.02358621 L100.514726,6.02358621 L101.775062,7.25824138 L101.775062,13.1232414 Z M107.446838,4.17134483 L103.350614,0.159103448 L94.2130464,0.159103448 L89.8016064,4.48065517 L89.8016064,29.4825517 L95.7880704,29.4825517 L95.7880704,18.9877241 L101.775062,18.9877241 L101.775062,29.4825517 L107.761526,29.4825517 L107.761526,4.48065517 L107.446838,4.17134483 Z" id="Fill-13" fill="#FFFFFF" mask="url(#mask-2)"></path>
                </g>
            </g>
        </g>
    </g>
</svg>